<svg xmlns="http://www.w3.org/2000/svg" viewBox="0 0 495 207" width="495" height="207" role="img" aria-label="A pomodoro timer dial at 17:30 of focus round 1, and the calendar of October 2026 with the 5th marked, each in a rounded box">
<rect width="495" height="207" rx="10" fill="#262624"/>
<g font-family="ui-monospace, SFMono-Regular, Menlo, Consolas, monospace" font-size="14.5" text-anchor="middle">
<rect x="22.5" y="65.5" width="225" height="114" rx="6" fill="none" stroke="#8c8a84" stroke-width="1.2"/>
<circle cx="60.5" cy="82.6" r="1.25" fill="#8c8a84"/>
<circle cx="83.5" cy="78.6" r="1.25" fill="#8c8a84"/>
<circle cx="83.5" cy="82.6" r="1.25" fill="#8c8a84"/>
<circle cx="101.5" cy="82.6" r="1.25" fill="#8c8a84"/>
<circle cx="42.5" cy="101.6" r="1.25" fill="#8c8a84"/>
<circle cx="56.5" cy="109.6" r="1.25" fill="#e5626b"/>
<circle cx="60.5" cy="101.6" r="1.25" fill="#e5626b"/>
<circle cx="60.5" cy="105.6" r="1.25" fill="#e5626b"/>
<circle cx="60.5" cy="109.6" r="1.25" fill="#e5626b"/>
<circle cx="65.5" cy="101.6" r="1.25" fill="#e5626b"/>
<circle cx="65.5" cy="105.6" r="1.25" fill="#e5626b"/>
<circle cx="65.5" cy="109.6" r="1.25" fill="#e5626b"/>
<circle cx="69.5" cy="97.6" r="1.25" fill="#e5626b"/>
<circle cx="69.5" cy="101.6" r="1.25" fill="#e5626b"/>
<circle cx="69.5" cy="105.6" r="1.25" fill="#e5626b"/>
<circle cx="69.5" cy="109.6" r="1.25" fill="#e5626b"/>
<circle cx="74.5" cy="97.6" r="1.25" fill="#e5626b"/>
<circle cx="74.5" cy="101.6" r="1.25" fill="#e5626b"/>
<circle cx="74.5" cy="105.6" r="1.25" fill="#e5626b"/>
<circle cx="74.5" cy="109.6" r="1.25" fill="#e5626b"/>
<circle cx="78.5" cy="97.6" r="1.25" fill="#e5626b"/>
<circle cx="78.5" cy="101.6" r="1.25" fill="#e5626b"/>
<circle cx="78.5" cy="105.6" r="1.25" fill="#e5626b"/>
<circle cx="78.5" cy="109.6" r="1.25" fill="#e5626b"/>
<circle cx="119.5" cy="101.6" r="1.25" fill="#8c8a84"/>
<text y="107.68" x="157.5 166.5 175.5 184.5 193.5" fill="#e5626b" font-weight="700">17:30</text>
<circle cx="38.5" cy="124.6" r="1.25" fill="#8c8a84"/>
<circle cx="42.5" cy="124.6" r="1.25" fill="#8c8a84"/>
<circle cx="56.5" cy="116.6" r="1.25" fill="#e5626b"/>
<circle cx="56.5" cy="120.6" r="1.25" fill="#e5626b"/>
<circle cx="56.5" cy="124.6" r="1.25" fill="#e5626b"/>
<circle cx="56.5" cy="128.6" r="1.25" fill="#e5626b"/>
<circle cx="60.5" cy="116.6" r="1.25" fill="#e5626b"/>
<circle cx="60.5" cy="120.6" r="1.25" fill="#e5626b"/>
<circle cx="60.5" cy="124.6" r="1.25" fill="#e5626b"/>
<circle cx="60.5" cy="128.6" r="1.25" fill="#e5626b"/>
<circle cx="65.5" cy="116.6" r="1.25" fill="#e5626b"/>
<circle cx="65.5" cy="120.6" r="1.25" fill="#e5626b"/>
<circle cx="65.5" cy="124.6" r="1.25" fill="#e5626b"/>
<circle cx="65.5" cy="128.6" r="1.25" fill="#e5626b"/>
<circle cx="69.5" cy="116.6" r="1.25" fill="#e5626b"/>
<circle cx="69.5" cy="120.6" r="1.25" fill="#e5626b"/>
<circle cx="69.5" cy="124.6" r="1.25" fill="#e5626b"/>
<circle cx="69.5" cy="128.6" r="1.25" fill="#e5626b"/>
<circle cx="74.5" cy="116.6" r="1.25" fill="#e5626b"/>
<circle cx="74.5" cy="120.6" r="1.25" fill="#e5626b"/>
<circle cx="74.5" cy="124.6" r="1.25" fill="#e5626b"/>
<circle cx="74.5" cy="128.6" r="1.25" fill="#e5626b"/>
<circle cx="78.5" cy="116.6" r="1.25" fill="#e5626b"/>
<circle cx="78.5" cy="120.6" r="1.25" fill="#e5626b"/>
<circle cx="78.5" cy="124.6" r="1.25" fill="#e5626b"/>
<circle cx="78.5" cy="128.6" r="1.25" fill="#e5626b"/>
<circle cx="83.5" cy="124.6" r="1.25" fill="#e5626b"/>
<circle cx="83.5" cy="128.6" r="1.25" fill="#e5626b"/>
<circle cx="87.5" cy="124.6" r="1.25" fill="#e5626b"/>
<circle cx="87.5" cy="128.6" r="1.25" fill="#e5626b"/>
<circle cx="92.5" cy="128.6" r="1.25" fill="#e5626b"/>
<circle cx="96.5" cy="128.6" r="1.25" fill="#e5626b"/>
<circle cx="101.5" cy="128.6" r="1.25" fill="#e5626b"/>
<circle cx="110.5" cy="128.6" r="1.25" fill="#e6e4dc"/>
<circle cx="119.5" cy="124.6" r="1.25" fill="#8c8a84"/>
<circle cx="123.5" cy="124.6" r="1.25" fill="#8c8a84"/>
<rect x="153" y="121" width="9" height="3" fill="#e5626b"/>
<rect x="162" y="121" width="9" height="3" fill="#e5626b"/>
<rect x="172.5" y="121.9" width="5" height="1.2" fill="#e5626b"/>
<rect x="181.5" y="121.9" width="5" height="1.2" fill="#e5626b"/>
<rect x="190.5" y="121.9" width="5" height="1.2" fill="#e5626b"/>
<rect x="199.5" y="121.9" width="5" height="1.2" fill="#e5626b"/>
<rect x="208.5" y="121.9" width="5" height="1.2" fill="#e5626b"/>
<rect x="217.5" y="121.9" width="5" height="1.2" fill="#e5626b"/>
<circle cx="42.5" cy="143.6" r="1.25" fill="#8c8a84"/>
<circle cx="56.5" cy="135.6" r="1.25" fill="#e5626b"/>
<circle cx="60.5" cy="135.6" r="1.25" fill="#e5626b"/>
<circle cx="60.5" cy="139.6" r="1.25" fill="#e5626b"/>
<circle cx="60.5" cy="143.6" r="1.25" fill="#e5626b"/>
<circle cx="65.5" cy="135.6" r="1.25" fill="#e5626b"/>
<circle cx="65.5" cy="139.6" r="1.25" fill="#e5626b"/>
<circle cx="65.5" cy="143.6" r="1.25" fill="#e5626b"/>
<circle cx="69.5" cy="135.6" r="1.25" fill="#e5626b"/>
<circle cx="69.5" cy="139.6" r="1.25" fill="#e5626b"/>
<circle cx="69.5" cy="143.6" r="1.25" fill="#e5626b"/>
<circle cx="69.5" cy="147.6" r="1.25" fill="#e5626b"/>
<circle cx="74.5" cy="135.6" r="1.25" fill="#e5626b"/>
<circle cx="74.5" cy="139.6" r="1.25" fill="#e5626b"/>
<circle cx="74.5" cy="143.6" r="1.25" fill="#e5626b"/>
<circle cx="74.5" cy="147.6" r="1.25" fill="#e5626b"/>
<circle cx="78.5" cy="135.6" r="1.25" fill="#e5626b"/>
<circle cx="78.5" cy="139.6" r="1.25" fill="#e5626b"/>
<circle cx="78.5" cy="143.6" r="1.25" fill="#e5626b"/>
<circle cx="78.5" cy="147.6" r="1.25" fill="#e5626b"/>
<circle cx="83.5" cy="135.6" r="1.25" fill="#e5626b"/>
<circle cx="83.5" cy="139.6" r="1.25" fill="#e5626b"/>
<circle cx="83.5" cy="143.6" r="1.25" fill="#e5626b"/>
<circle cx="83.5" cy="147.6" r="1.25" fill="#e5626b"/>
<circle cx="87.5" cy="135.6" r="1.25" fill="#e5626b"/>
<circle cx="87.5" cy="139.6" r="1.25" fill="#e5626b"/>
<circle cx="87.5" cy="143.6" r="1.25" fill="#e5626b"/>
<circle cx="87.5" cy="147.6" r="1.25" fill="#e5626b"/>
<circle cx="92.5" cy="135.6" r="1.25" fill="#e5626b"/>
<circle cx="92.5" cy="139.6" r="1.25" fill="#e5626b"/>
<circle cx="92.5" cy="143.6" r="1.25" fill="#e5626b"/>
<circle cx="92.5" cy="147.6" r="1.25" fill="#e5626b"/>
<circle cx="96.5" cy="135.6" r="1.25" fill="#e5626b"/>
<circle cx="96.5" cy="139.6" r="1.25" fill="#e5626b"/>
<circle cx="96.5" cy="143.6" r="1.25" fill="#e5626b"/>
<circle cx="101.5" cy="135.6" r="1.25" fill="#e5626b"/>
<circle cx="101.5" cy="139.6" r="1.25" fill="#e5626b"/>
<circle cx="101.5" cy="143.6" r="1.25" fill="#e5626b"/>
<circle cx="105.5" cy="135.6" r="1.25" fill="#e5626b"/>
<circle cx="110.5" cy="135.6" r="1.25" fill="#e6e4dc"/>
<circle cx="114.5" cy="135.6" r="1.25" fill="#e6e4dc"/>
<circle cx="119.5" cy="135.6" r="1.25" fill="#e6e4dc"/>
<circle cx="119.5" cy="143.6" r="1.25" fill="#e6e4dc"/>
<text y="145.68" x="157.5 166.5 175.5 184.5 193.5 220.5 229.5" fill="#8c8a84">FOCUS#1</text>
<circle cx="60.5" cy="162.6" r="1.25" fill="#8c8a84"/>
<circle cx="83.5" cy="162.6" r="1.25" fill="#8c8a84"/>
<circle cx="83.5" cy="166.6" r="1.25" fill="#8c8a84"/>
<circle cx="101.5" cy="162.6" r="1.25" fill="#8c8a84"/>
<rect x="265.5" y="27.5" width="207" height="152" rx="6" fill="none" stroke="#8c8a84" stroke-width="1.2"/>
<text y="50.68" x="319.5 328.5 337.5 346.5 355.5 364.5 373.5 391.5 400.5 409.5 418.5" fill="#e6e4dc" font-weight="700">October2026</text>
<text y="69.68" x="283.5 292.5" fill="#e5626b">Su</text>
<text y="69.68" x="310.5 319.5" fill="#8c8a84">Mo</text>
<text y="69.68" x="337.5 346.5" fill="#8c8a84">Tu</text>
<text y="69.68" x="364.5 373.5" fill="#8c8a84">We</text>
<text y="69.68" x="391.5 400.5" fill="#8c8a84">Th</text>
<text y="69.68" x="418.5 427.5" fill="#8c8a84">Fr</text>
<text y="69.68" x="445.5 454.5" fill="#7aa2ff">Sa</text>
<text y="88.68" x="400.5" fill="#e6e4dc">1</text>
<text y="88.68" x="427.5" fill="#e6e4dc">2</text>
<text y="88.68" x="454.5" fill="#7aa2ff">3</text>
<text y="107.68" x="292.5" fill="#e5626b">4</text>
<rect x="304.5" y="95.5" width="21" height="16" rx="2" fill="#d97757"/>
<text y="107.68" x="319.5" fill="#262624" font-weight="700">5</text>
<text y="107.68" x="346.5" fill="#e6e4dc">6</text>
<text y="107.68" x="373.5" fill="#e6e4dc">7</text>
<text y="107.68" x="400.5" fill="#e6e4dc">8</text>
<text y="107.68" x="427.5" fill="#e6e4dc">9</text>
<text y="107.68" x="445.5 454.5" fill="#7aa2ff">10</text>
<text y="126.68" x="283.5 292.5" fill="#e5626b">11</text>
<text y="126.68" x="310.5 319.5" fill="#e6e4dc">12</text>
<text y="126.68" x="337.5 346.5" fill="#e6e4dc">13</text>
<text y="126.68" x="364.5 373.5" fill="#e6e4dc">14</text>
<text y="126.68" x="391.5 400.5" fill="#e6e4dc">15</text>
<text y="126.68" x="418.5 427.5" fill="#e6e4dc">16</text>
<text y="126.68" x="445.5 454.5" fill="#7aa2ff">17</text>
<text y="145.68" x="283.5 292.5" fill="#e5626b">18</text>
<text y="145.68" x="310.5 319.5" fill="#e6e4dc">19</text>
<text y="145.68" x="337.5 346.5" fill="#e6e4dc">20</text>
<text y="145.68" x="364.5 373.5" fill="#e6e4dc">21</text>
<text y="145.68" x="391.5 400.5" fill="#e6e4dc">22</text>
<text y="145.68" x="418.5 427.5" fill="#e6e4dc">23</text>
<text y="145.68" x="445.5 454.5" fill="#7aa2ff">24</text>
<text y="164.68" x="283.5 292.5" fill="#e5626b">25</text>
<text y="164.68" x="310.5 319.5" fill="#e6e4dc">26</text>
<text y="164.68" x="337.5 346.5" fill="#e6e4dc">27</text>
<text y="164.68" x="364.5 373.5" fill="#e6e4dc">28</text>
<text y="164.68" x="391.5 400.5" fill="#e6e4dc">29</text>
<text y="164.68" x="418.5 427.5" fill="#e6e4dc">30</text>
<text y="164.68" x="445.5 454.5" fill="#7aa2ff">31</text>
</g>
</svg>
