<svg xmlns="http://www.w3.org/2000/svg" viewBox="0 0 747 207" width="747" height="207" role="img" aria-label="A pomodoro timer dial at 17:30 of focus round 1, and the calendar of October 2026 with the 5th marked, and the context window as a well of Tetris blocks at 63%, each in a rounded box">
<style>.f-paper{fill:#262624}.s-paper{stroke:#262624}.f-text{fill:#e6e4dc}.s-text{stroke:#e6e4dc}.f-inactive{fill:#8c8a84}.s-inactive{stroke:#8c8a84}.f-error{fill:#e5626b}.s-error{stroke:#e5626b}.f-success{fill:#6dbf6a}.s-success{stroke:#6dbf6a}.f-claude{fill:#d97757}.s-claude{stroke:#d97757}.f-suggestion{fill:#7aa2ff}.s-suggestion{stroke:#7aa2ff}.f-warning{fill:#e0b34c}.s-warning{stroke:#e0b34c}.f-planMode{fill:#4fb3b3}.s-planMode{stroke:#4fb3b3}.f-merged{fill:#a98bf0}.s-merged{stroke:#a98bf0}</style>
<rect width="747" height="207" rx="10" class="f-paper"/>
<g font-family="ui-monospace, SFMono-Regular, Menlo, Consolas, monospace" font-size="14.5" text-anchor="middle">
<rect x="22.5" y="27.5" width="225" height="152" rx="6" fill="none" class="s-inactive" stroke-width="1.2"/>
<circle cx="60.5" cy="63.6" r="1.25" class="f-inactive"/>
<circle cx="78.5" cy="59.6" r="1.25" class="f-inactive"/>
<circle cx="83.5" cy="59.6" r="1.25" class="f-inactive"/>
<circle cx="101.5" cy="63.6" r="1.25" class="f-inactive"/>
<circle cx="42.5" cy="82.6" r="1.25" class="f-inactive"/>
<circle cx="56.5" cy="90.6" r="1.25" class="f-error"/>
<circle cx="60.5" cy="82.6" r="1.25" class="f-error"/>
<circle cx="60.5" cy="86.6" r="1.25" class="f-error"/>
<circle cx="60.5" cy="90.6" r="1.25" class="f-error"/>
<circle cx="65.5" cy="82.6" r="1.25" class="f-error"/>
<circle cx="65.5" cy="86.6" r="1.25" class="f-error"/>
<circle cx="65.5" cy="90.6" r="1.25" class="f-error"/>
<circle cx="69.5" cy="78.6" r="1.25" class="f-error"/>
<circle cx="69.5" cy="82.6" r="1.25" class="f-error"/>
<circle cx="69.5" cy="86.6" r="1.25" class="f-error"/>
<circle cx="69.5" cy="90.6" r="1.25" class="f-error"/>
<circle cx="74.5" cy="78.6" r="1.25" class="f-error"/>
<circle cx="74.5" cy="82.6" r="1.25" class="f-error"/>
<circle cx="74.5" cy="86.6" r="1.25" class="f-error"/>
<circle cx="74.5" cy="90.6" r="1.25" class="f-error"/>
<circle cx="78.5" cy="78.6" r="1.25" class="f-error"/>
<circle cx="78.5" cy="82.6" r="1.25" class="f-error"/>
<circle cx="78.5" cy="86.6" r="1.25" class="f-error"/>
<circle cx="78.5" cy="90.6" r="1.25" class="f-error"/>
<circle cx="119.5" cy="82.6" r="1.25" class="f-inactive"/>
<text y="88.68" x="157.5 166.5 175.5 184.5 193.5" class="f-error" font-weight="700">17:30</text>
<circle cx="38.5" cy="101.6" r="1.25" class="f-inactive"/>
<circle cx="38.5" cy="105.6" r="1.25" class="f-inactive"/>
<circle cx="56.5" cy="97.6" r="1.25" class="f-error"/>
<circle cx="56.5" cy="101.6" r="1.25" class="f-error"/>
<circle cx="56.5" cy="105.6" r="1.25" class="f-error"/>
<circle cx="56.5" cy="109.6" r="1.25" class="f-error"/>
<circle cx="60.5" cy="97.6" r="1.25" class="f-error"/>
<circle cx="60.5" cy="101.6" r="1.25" class="f-error"/>
<circle cx="60.5" cy="105.6" r="1.25" class="f-error"/>
<circle cx="60.5" cy="109.6" r="1.25" class="f-error"/>
<circle cx="65.5" cy="97.6" r="1.25" class="f-error"/>
<circle cx="65.5" cy="101.6" r="1.25" class="f-error"/>
<circle cx="65.5" cy="105.6" r="1.25" class="f-error"/>
<circle cx="65.5" cy="109.6" r="1.25" class="f-error"/>
<circle cx="69.5" cy="97.6" r="1.25" class="f-error"/>
<circle cx="69.5" cy="101.6" r="1.25" class="f-error"/>
<circle cx="69.5" cy="105.6" r="1.25" class="f-error"/>
<circle cx="69.5" cy="109.6" r="1.25" class="f-error"/>
<circle cx="78.5" cy="101.6" r="1.25" class="f-text"/>
<circle cx="78.5" cy="105.6" r="1.25" class="f-text"/>
<circle cx="83.5" cy="101.6" r="1.25" class="f-text"/>
<circle cx="83.5" cy="105.6" r="1.25" class="f-text"/>
<circle cx="87.5" cy="105.6" r="1.25" class="f-text"/>
<circle cx="92.5" cy="105.6" r="1.25" class="f-text"/>
<circle cx="96.5" cy="109.6" r="1.25" class="f-text"/>
<circle cx="101.5" cy="109.6" r="1.25" class="f-text"/>
<circle cx="105.5" cy="109.6" r="1.25" class="f-text"/>
<circle cx="123.5" cy="101.6" r="1.25" class="f-inactive"/>
<circle cx="123.5" cy="105.6" r="1.25" class="f-inactive"/>
<rect x="153" y="102" width="9" height="3" class="f-error"/>
<rect x="162" y="102" width="9" height="3" class="f-error"/>
<rect x="172.5" y="102.9" width="5" height="1.2" class="f-error"/>
<rect x="181.5" y="102.9" width="5" height="1.2" class="f-error"/>
<rect x="190.5" y="102.9" width="5" height="1.2" class="f-error"/>
<rect x="199.5" y="102.9" width="5" height="1.2" class="f-error"/>
<rect x="208.5" y="102.9" width="5" height="1.2" class="f-error"/>
<rect x="217.5" y="102.9" width="5" height="1.2" class="f-error"/>
<circle cx="42.5" cy="124.6" r="1.25" class="f-inactive"/>
<circle cx="56.5" cy="116.6" r="1.25" class="f-error"/>
<circle cx="60.5" cy="116.6" r="1.25" class="f-error"/>
<circle cx="60.5" cy="120.6" r="1.25" class="f-error"/>
<circle cx="60.5" cy="124.6" r="1.25" class="f-error"/>
<circle cx="65.5" cy="116.6" r="1.25" class="f-error"/>
<circle cx="65.5" cy="120.6" r="1.25" class="f-error"/>
<circle cx="65.5" cy="124.6" r="1.25" class="f-error"/>
<circle cx="69.5" cy="116.6" r="1.25" class="f-error"/>
<circle cx="69.5" cy="120.6" r="1.25" class="f-error"/>
<circle cx="69.5" cy="124.6" r="1.25" class="f-error"/>
<circle cx="69.5" cy="128.6" r="1.25" class="f-error"/>
<circle cx="74.5" cy="116.6" r="1.25" class="f-error"/>
<circle cx="74.5" cy="120.6" r="1.25" class="f-error"/>
<circle cx="74.5" cy="124.6" r="1.25" class="f-error"/>
<circle cx="74.5" cy="128.6" r="1.25" class="f-error"/>
<circle cx="78.5" cy="116.6" r="1.25" class="f-error"/>
<circle cx="78.5" cy="120.6" r="1.25" class="f-error"/>
<circle cx="78.5" cy="124.6" r="1.25" class="f-error"/>
<circle cx="78.5" cy="128.6" r="1.25" class="f-error"/>
<circle cx="83.5" cy="116.6" r="1.25" class="f-error"/>
<circle cx="83.5" cy="120.6" r="1.25" class="f-error"/>
<circle cx="83.5" cy="124.6" r="1.25" class="f-error"/>
<circle cx="83.5" cy="128.6" r="1.25" class="f-error"/>
<circle cx="87.5" cy="116.6" r="1.25" class="f-error"/>
<circle cx="87.5" cy="120.6" r="1.25" class="f-error"/>
<circle cx="87.5" cy="124.6" r="1.25" class="f-error"/>
<circle cx="87.5" cy="128.6" r="1.25" class="f-error"/>
<circle cx="92.5" cy="116.6" r="1.25" class="f-error"/>
<circle cx="92.5" cy="120.6" r="1.25" class="f-error"/>
<circle cx="92.5" cy="124.6" r="1.25" class="f-error"/>
<circle cx="92.5" cy="128.6" r="1.25" class="f-error"/>
<circle cx="96.5" cy="116.6" r="1.25" class="f-error"/>
<circle cx="96.5" cy="120.6" r="1.25" class="f-error"/>
<circle cx="96.5" cy="124.6" r="1.25" class="f-error"/>
<circle cx="101.5" cy="116.6" r="1.25" class="f-error"/>
<circle cx="101.5" cy="120.6" r="1.25" class="f-error"/>
<circle cx="101.5" cy="124.6" r="1.25" class="f-error"/>
<circle cx="105.5" cy="116.6" r="1.25" class="f-error"/>
<circle cx="119.5" cy="124.6" r="1.25" class="f-inactive"/>
<text y="126.68" x="157.5 166.5 175.5 184.5 193.5 220.5 229.5" class="f-inactive">FOCUS#1</text>
<circle cx="60.5" cy="143.6" r="1.25" class="f-inactive"/>
<circle cx="78.5" cy="147.6" r="1.25" class="f-inactive"/>
<circle cx="83.5" cy="147.6" r="1.25" class="f-inactive"/>
<circle cx="101.5" cy="143.6" r="1.25" class="f-inactive"/>
<rect x="265.5" y="27.5" width="207" height="152" rx="6" fill="none" class="s-inactive" stroke-width="1.2"/>
<text y="50.68" x="319.5 328.5 337.5 346.5 355.5 364.5 373.5 391.5 400.5 409.5 418.5" class="f-text" font-weight="700">October2026</text>
<text y="69.68" x="283.5 292.5" class="f-error">Su</text>
<text y="69.68" x="310.5 319.5" class="f-inactive">Mo</text>
<text y="69.68" x="337.5 346.5" class="f-inactive">Tu</text>
<text y="69.68" x="364.5 373.5" class="f-inactive">We</text>
<text y="69.68" x="391.5 400.5" class="f-inactive">Th</text>
<text y="69.68" x="418.5 427.5" class="f-inactive">Fr</text>
<text y="69.68" x="445.5 454.5" class="f-suggestion">Sa</text>
<text y="88.68" x="400.5" class="f-text">1</text>
<text y="88.68" x="427.5" class="f-text">2</text>
<text y="88.68" x="454.5" class="f-suggestion">3</text>
<text y="107.68" x="292.5" class="f-error">4</text>
<rect x="304.5" y="95.5" width="21" height="16" rx="2" class="f-claude"/>
<text y="107.68" x="319.5" class="f-paper" font-weight="700">5</text>
<text y="107.68" x="346.5" class="f-text">6</text>
<text y="107.68" x="373.5" class="f-text">7</text>
<text y="107.68" x="400.5" class="f-text">8</text>
<text y="107.68" x="427.5" class="f-text">9</text>
<text y="107.68" x="445.5 454.5" class="f-suggestion">10</text>
<text y="126.68" x="283.5 292.5" class="f-error">11</text>
<text y="126.68" x="310.5 319.5" class="f-text">12</text>
<text y="126.68" x="337.5 346.5" class="f-text">13</text>
<text y="126.68" x="364.5 373.5" class="f-text">14</text>
<text y="126.68" x="391.5 400.5" class="f-text">15</text>
<text y="126.68" x="418.5 427.5" class="f-text">16</text>
<text y="126.68" x="445.5 454.5" class="f-suggestion">17</text>
<text y="145.68" x="283.5 292.5" class="f-error">18</text>
<text y="145.68" x="310.5 319.5" class="f-text">19</text>
<text y="145.68" x="337.5 346.5" class="f-text">20</text>
<text y="145.68" x="364.5 373.5" class="f-text">21</text>
<text y="145.68" x="391.5 400.5" class="f-text">22</text>
<text y="145.68" x="418.5 427.5" class="f-text">23</text>
<text y="145.68" x="445.5 454.5" class="f-suggestion">24</text>
<text y="164.68" x="283.5 292.5" class="f-error">25</text>
<text y="164.68" x="310.5 319.5" class="f-text">26</text>
<text y="164.68" x="337.5 346.5" class="f-text">27</text>
<text y="164.68" x="364.5 373.5" class="f-text">28</text>
<text y="164.68" x="391.5 400.5" class="f-text">29</text>
<text y="164.68" x="418.5 427.5" class="f-text">30</text>
<text y="164.68" x="445.5 454.5" class="f-suggestion">31</text>
<rect x="490.5" y="27.5" width="234" height="152" rx="6" fill="none" class="s-inactive" stroke-width="1.2"/>
<line x1="508.5" y1="37" x2="508.5" y2="56" class="s-inactive" stroke-width="1" stroke-dasharray="2 2.75"/>
<rect x="540.5" y="47" width="8" height="8.5" rx="1" class="f-warning"/>
<rect x="549.5" y="47" width="8" height="8.5" rx="1" class="f-warning"/>
<line x1="607.5" y1="37" x2="607.5" y2="56" class="s-inactive" stroke-width="1" stroke-dasharray="2 2.75"/>
<line x1="508.5" y1="56" x2="508.5" y2="75" class="s-inactive" stroke-width="1" stroke-dasharray="2 2.75"/>
<circle cx="515.5" cy="63.6" r="1.25" class="f-inactive"/>
<circle cx="519.5" cy="63.6" r="1.25" class="f-inactive"/>
<circle cx="524.5" cy="63.6" r="1.25" class="f-inactive"/>
<circle cx="528.5" cy="63.6" r="1.25" class="f-inactive"/>
<circle cx="533.5" cy="63.6" r="1.25" class="f-inactive"/>
<circle cx="537.5" cy="63.6" r="1.25" class="f-inactive"/>
<rect x="540.5" y="56.5" width="8" height="8.5" rx="1" class="f-warning"/>
<rect x="549.5" y="56.5" width="8" height="8.5" rx="1" class="f-warning"/>
<circle cx="560.5" cy="63.6" r="1.25" class="f-inactive"/>
<circle cx="564.5" cy="63.6" r="1.25" class="f-inactive"/>
<circle cx="569.5" cy="63.6" r="1.25" class="f-inactive"/>
<circle cx="573.5" cy="63.6" r="1.25" class="f-inactive"/>
<circle cx="578.5" cy="63.6" r="1.25" class="f-inactive"/>
<circle cx="582.5" cy="63.6" r="1.25" class="f-inactive"/>
<circle cx="587.5" cy="63.6" r="1.25" class="f-inactive"/>
<circle cx="591.5" cy="63.6" r="1.25" class="f-inactive"/>
<circle cx="596.5" cy="63.6" r="1.25" class="f-inactive"/>
<circle cx="600.5" cy="63.6" r="1.25" class="f-inactive"/>
<line x1="607.5" y1="56" x2="607.5" y2="75" class="s-inactive" stroke-width="1" stroke-dasharray="2 2.75"/>
<text y="69.68" x="634.5 643.5 652.5" class="f-text" font-weight="700">63%</text>
<line x1="508.5" y1="75" x2="508.5" y2="94" class="s-inactive" stroke-width="1" stroke-dasharray="2 2.75"/>
<rect x="531.5" y="85" width="8" height="8.5" rx="1" class="f-text"/>
<rect x="540.5" y="85" width="8" height="8.5" rx="1" class="f-suggestion"/>
<rect x="549.5" y="85" width="8" height="8.5" rx="1" class="f-suggestion"/>
<rect x="558.5" y="85" width="8" height="8.5" rx="1" class="f-suggestion"/>
<rect x="567.5" y="85" width="8" height="8.5" rx="1" class="f-suggestion"/>
<rect x="576.5" y="85" width="8" height="8.5" rx="1" class="f-suggestion"/>
<rect x="585.5" y="85" width="8" height="8.5" rx="1" class="f-suggestion"/>
<line x1="607.5" y1="75" x2="607.5" y2="94" class="s-inactive" stroke-width="1" stroke-dasharray="2 2.75"/>
<text y="88.68" x="634.5 643.5 652.5 661.5 670.5 679.5 688.5 697.5 706.5" class="f-inactive">126k/200k</text>
<line x1="508.5" y1="94" x2="508.5" y2="113" class="s-inactive" stroke-width="1" stroke-dasharray="2 2.75"/>
<rect x="513.5" y="104" width="8" height="8.5" rx="1" class="f-merged"/>
<rect x="531.5" y="94.5" width="8" height="8.5" rx="1" class="f-text"/>
<rect x="531.5" y="104" width="8" height="8.5" rx="1" class="f-merged"/>
<rect x="540.5" y="94.5" width="8" height="8.5" rx="1" class="f-merged"/>
<rect x="540.5" y="104" width="8" height="8.5" rx="1" class="f-merged"/>
<rect x="549.5" y="94.5" width="8" height="8.5" rx="1" class="f-text"/>
<rect x="549.5" y="104" width="8" height="8.5" rx="1" class="f-text"/>
<rect x="558.5" y="94.5" width="8" height="8.5" rx="1" class="f-suggestion"/>
<rect x="558.5" y="104" width="8" height="8.5" rx="1" class="f-text"/>
<rect x="567.5" y="94.5" width="8" height="8.5" rx="1" class="f-warning"/>
<rect x="567.5" y="104" width="8" height="8.5" rx="1" class="f-warning"/>
<rect x="576.5" y="94.5" width="8" height="8.5" rx="1" class="f-warning"/>
<rect x="576.5" y="104" width="8" height="8.5" rx="1" class="f-warning"/>
<rect x="585.5" y="94.5" width="8" height="8.5" rx="1" class="f-suggestion"/>
<rect x="585.5" y="104" width="8" height="8.5" rx="1" class="f-error"/>
<rect x="594.5" y="94.5" width="8" height="8.5" rx="1" class="f-error"/>
<rect x="594.5" y="104" width="8" height="8.5" rx="1" class="f-error"/>
<line x1="607.5" y1="94" x2="607.5" y2="113" class="s-inactive" stroke-width="1" stroke-dasharray="2 2.75"/>
<text y="107.68" x="634.5 643.5 652.5 661.5" class="f-inactive">+12k</text>
<line x1="508.5" y1="113" x2="508.5" y2="132" class="s-inactive" stroke-width="1" stroke-dasharray="2 2.75"/>
<rect x="513.5" y="113.5" width="8" height="8.5" rx="1" class="f-merged"/>
<rect x="513.5" y="123" width="8" height="8.5" rx="1" class="f-merged"/>
<rect x="522.5" y="113.5" width="8" height="8.5" rx="1" class="f-merged"/>
<rect x="522.5" y="123" width="8" height="8.5" rx="1" class="f-error"/>
<rect x="531.5" y="113.5" width="8" height="8.5" rx="1" class="f-error"/>
<rect x="531.5" y="123" width="8" height="8.5" rx="1" class="f-error"/>
<rect x="540.5" y="113.5" width="8" height="8.5" rx="1" class="f-merged"/>
<rect x="540.5" y="123" width="8" height="8.5" rx="1" class="f-success"/>
<rect x="549.5" y="113.5" width="8" height="8.5" rx="1" class="f-success"/>
<rect x="549.5" y="123" width="8" height="8.5" rx="1" class="f-success"/>
<rect x="558.5" y="113.5" width="8" height="8.5" rx="1" class="f-success"/>
<rect x="558.5" y="123" width="8" height="8.5" rx="1" class="f-success"/>
<rect x="567.5" y="113.5" width="8" height="8.5" rx="1" class="f-success"/>
<rect x="567.5" y="123" width="8" height="8.5" rx="1" class="f-success"/>
<rect x="576.5" y="113.5" width="8" height="8.5" rx="1" class="f-success"/>
<rect x="576.5" y="123" width="8" height="8.5" rx="1" class="f-success"/>
<rect x="585.5" y="113.5" width="8" height="8.5" rx="1" class="f-error"/>
<rect x="585.5" y="123" width="8" height="8.5" rx="1" class="f-merged"/>
<rect x="594.5" y="113.5" width="8" height="8.5" rx="1" class="f-merged"/>
<rect x="594.5" y="123" width="8" height="8.5" rx="1" class="f-merged"/>
<line x1="607.5" y1="113" x2="607.5" y2="132" class="s-inactive" stroke-width="1" stroke-dasharray="2 2.75"/>
<text y="126.68" x="634.5 643.5 652.5 661.5 679.5" class="f-inactive">turn8</text>
<line x1="508.5" y1="132" x2="508.5" y2="151" class="s-inactive" stroke-width="1" stroke-dasharray="2 2.75"/>
<rect x="513.5" y="132.5" width="8" height="8.5" rx="1" class="f-text"/>
<rect x="513.5" y="142" width="8" height="8.5" rx="1" class="f-claude"/>
<rect x="522.5" y="132.5" width="8" height="8.5" rx="1" class="f-error"/>
<rect x="522.5" y="142" width="8" height="8.5" rx="1" class="f-claude"/>
<rect x="531.5" y="132.5" width="8" height="8.5" rx="1" class="f-claude"/>
<rect x="531.5" y="142" width="8" height="8.5" rx="1" class="f-claude"/>
<rect x="549.5" y="132.5" width="8" height="8.5" rx="1" class="f-merged"/>
<rect x="558.5" y="132.5" width="8" height="8.5" rx="1" class="f-merged"/>
<rect x="558.5" y="142" width="8" height="8.5" rx="1" class="f-merged"/>
<rect x="567.5" y="132.5" width="8" height="8.5" rx="1" class="f-merged"/>
<rect x="567.5" y="142" width="8" height="8.5" rx="1" class="f-error"/>
<rect x="576.5" y="132.5" width="8" height="8.5" rx="1" class="f-success"/>
<rect x="576.5" y="142" width="8" height="8.5" rx="1" class="f-error"/>
<rect x="585.5" y="132.5" width="8" height="8.5" rx="1" class="f-success"/>
<rect x="585.5" y="142" width="8" height="8.5" rx="1" class="f-success"/>
<rect x="594.5" y="132.5" width="8" height="8.5" rx="1" class="f-merged"/>
<line x1="607.5" y1="132" x2="607.5" y2="151" class="s-inactive" stroke-width="1" stroke-dasharray="2 2.75"/>
<text y="145.68" x="634.5 643.5 652.5 661.5 670.5 679.5 688.5" class="f-inactive">CONTEXT</text>
<line x1="508.5" y1="151" x2="508.5" y2="170" class="s-inactive" stroke-width="1" stroke-dasharray="2 2.75"/>
<rect x="513.5" y="151.5" width="8" height="8.5" rx="1" class="f-inactive"/>
<rect x="513.5" y="161" width="8" height="8.5" rx="1" class="f-inactive"/>
<rect x="522.5" y="151.5" width="8" height="8.5" rx="1" class="f-inactive"/>
<rect x="522.5" y="161" width="8" height="8.5" rx="1" class="f-inactive"/>
<rect x="531.5" y="151.5" width="8" height="8.5" rx="1" class="f-inactive"/>
<rect x="531.5" y="161" width="8" height="8.5" rx="1" class="f-inactive"/>
<rect x="540.5" y="151.5" width="8" height="8.5" rx="1" class="f-inactive"/>
<rect x="540.5" y="161" width="8" height="8.5" rx="1" class="f-inactive"/>
<rect x="549.5" y="151.5" width="8" height="8.5" rx="1" class="f-inactive"/>
<rect x="549.5" y="161" width="8" height="8.5" rx="1" class="f-inactive"/>
<rect x="558.5" y="151.5" width="8" height="8.5" rx="1" class="f-inactive"/>
<rect x="558.5" y="161" width="8" height="8.5" rx="1" class="f-inactive"/>
<rect x="567.5" y="151.5" width="8" height="8.5" rx="1" class="f-inactive"/>
<rect x="567.5" y="161" width="8" height="8.5" rx="1" class="f-inactive"/>
<rect x="576.5" y="151.5" width="8" height="8.5" rx="1" class="f-error"/>
<rect x="576.5" y="161" width="8" height="8.5" rx="1" class="f-inactive"/>
<rect x="585.5" y="151.5" width="8" height="8.5" rx="1" class="f-error"/>
<rect x="585.5" y="161" width="8" height="8.5" rx="1" class="f-inactive"/>
<rect x="594.5" y="151.5" width="8" height="8.5" rx="1" class="f-text"/>
<rect x="594.5" y="161" width="8" height="8.5" rx="1" class="f-inactive"/>
<line x1="607.5" y1="151" x2="607.5" y2="170" class="s-inactive" stroke-width="1" stroke-dasharray="2 2.75"/>
</g>
</svg>
